<mxfile host="app.diagrams.net" modified="2020-11-24T10:56:39.251Z" agent="5.0 (Macintosh; Intel Mac OS X 10_15_4) AppleWebKit/537.36 (KHTML, like Gecko) Chrome/86.0.4240.198 Safari/537.36" etag="ZW2uX_L3dVKFfDJJVzPU" version="13.10.0" type="github">
  <diagram id="C5RBs43oDa-KdzZeNtuy" name="Page-1">
    <mxGraphModel dx="786" dy="513" grid="1" gridSize="10" guides="1" tooltips="1" connect="1" arrows="1" fold="1" page="1" pageScale="1" pageWidth="827" pageHeight="1169" math="0" shadow="0">
      <root>
        <mxCell id="WIyWlLk6GJQsqaUBKTNV-0" />
        <mxCell id="WIyWlLk6GJQsqaUBKTNV-1" parent="WIyWlLk6GJQsqaUBKTNV-0" />
        <mxCell id="ExRfrAu5Tip5YaKPEqqu-0" value="Bus Ticket Booking System&lt;br&gt;&lt;br&gt;1. user comes in and check buses between src and dst.&lt;br&gt;2. user can book tickets for certain bus and some seats.&lt;br&gt;3. admins can add bus operators.&lt;br&gt;4. bus operators can add and remove buses.&lt;br&gt;5. bus operators can create trips for buses." style="text;html=1;strokeColor=none;fillColor=none;align=center;verticalAlign=middle;whiteSpace=wrap;rounded=0;" vertex="1" parent="WIyWlLk6GJQsqaUBKTNV-1">
          <mxGeometry width="170" height="310" as="geometry" />
        </mxCell>
        <mxCell id="ExRfrAu5Tip5YaKPEqqu-1" value="Users" style="swimlane;fontStyle=0;childLayout=stackLayout;horizontal=1;startSize=26;fillColor=none;horizontalStack=0;resizeParent=1;resizeParentMax=0;resizeLast=0;collapsible=1;marginBottom=0;" vertex="1" parent="WIyWlLk6GJQsqaUBKTNV-1">
          <mxGeometry x="220" y="20" width="140" height="156" as="geometry" />
        </mxCell>
        <mxCell id="ExRfrAu5Tip5YaKPEqqu-2" value="+ Name: String" style="text;strokeColor=none;fillColor=none;align=left;verticalAlign=top;spacingLeft=4;spacingRight=4;overflow=hidden;rotatable=0;points=[[0,0.5],[1,0.5]];portConstraint=eastwest;" vertex="1" parent="ExRfrAu5Tip5YaKPEqqu-1">
          <mxGeometry y="26" width="140" height="26" as="geometry" />
        </mxCell>
        <mxCell id="ExRfrAu5Tip5YaKPEqqu-3" value="+ email:String" style="text;strokeColor=none;fillColor=none;align=left;verticalAlign=top;spacingLeft=4;spacingRight=4;overflow=hidden;rotatable=0;points=[[0,0.5],[1,0.5]];portConstraint=eastwest;" vertex="1" parent="ExRfrAu5Tip5YaKPEqqu-1">
          <mxGeometry y="52" width="140" height="26" as="geometry" />
        </mxCell>
        <mxCell id="ExRfrAu5Tip5YaKPEqqu-4" value="+ phoneNo.: Integer" style="text;strokeColor=none;fillColor=none;align=left;verticalAlign=top;spacingLeft=4;spacingRight=4;overflow=hidden;rotatable=0;points=[[0,0.5],[1,0.5]];portConstraint=eastwest;" vertex="1" parent="ExRfrAu5Tip5YaKPEqqu-1">
          <mxGeometry y="78" width="140" height="26" as="geometry" />
        </mxCell>
        <mxCell id="ExRfrAu5Tip5YaKPEqqu-13" value="+ userId: Integer " style="text;strokeColor=none;fillColor=none;align=left;verticalAlign=top;spacingLeft=4;spacingRight=4;overflow=hidden;rotatable=0;points=[[0,0.5],[1,0.5]];portConstraint=eastwest;" vertex="1" parent="ExRfrAu5Tip5YaKPEqqu-1">
          <mxGeometry y="104" width="140" height="26" as="geometry" />
        </mxCell>
        <mxCell id="ExRfrAu5Tip5YaKPEqqu-14" value="+ Roles: List&lt;Role&gt; " style="text;strokeColor=none;fillColor=none;align=left;verticalAlign=top;spacingLeft=4;spacingRight=4;overflow=hidden;rotatable=0;points=[[0,0.5],[1,0.5]];portConstraint=eastwest;" vertex="1" parent="ExRfrAu5Tip5YaKPEqqu-1">
          <mxGeometry y="130" width="140" height="26" as="geometry" />
        </mxCell>
        <mxCell id="ExRfrAu5Tip5YaKPEqqu-5" value="Role" style="swimlane;fontStyle=0;childLayout=stackLayout;horizontal=1;startSize=26;fillColor=none;horizontalStack=0;resizeParent=1;resizeParentMax=0;resizeLast=0;collapsible=1;marginBottom=0;" vertex="1" parent="WIyWlLk6GJQsqaUBKTNV-1">
          <mxGeometry x="414" y="17" width="186" height="104" as="geometry" />
        </mxCell>
        <mxCell id="ExRfrAu5Tip5YaKPEqqu-6" value="+ RoleId: Integer" style="text;strokeColor=none;fillColor=none;align=left;verticalAlign=top;spacingLeft=4;spacingRight=4;overflow=hidden;rotatable=0;points=[[0,0.5],[1,0.5]];portConstraint=eastwest;" vertex="1" parent="ExRfrAu5Tip5YaKPEqqu-5">
          <mxGeometry y="26" width="186" height="26" as="geometry" />
        </mxCell>
        <mxCell id="ExRfrAu5Tip5YaKPEqqu-7" value="+ RoleName: String" style="text;strokeColor=none;fillColor=none;align=left;verticalAlign=top;spacingLeft=4;spacingRight=4;overflow=hidden;rotatable=0;points=[[0,0.5],[1,0.5]];portConstraint=eastwest;" vertex="1" parent="ExRfrAu5Tip5YaKPEqqu-5">
          <mxGeometry y="52" width="186" height="26" as="geometry" />
        </mxCell>
        <mxCell id="ExRfrAu5Tip5YaKPEqqu-16" value="+ Priviledges: List&lt;Privilege&gt;" style="text;strokeColor=none;fillColor=none;align=left;verticalAlign=top;spacingLeft=4;spacingRight=4;overflow=hidden;rotatable=0;points=[[0,0.5],[1,0.5]];portConstraint=eastwest;" vertex="1" parent="ExRfrAu5Tip5YaKPEqqu-5">
          <mxGeometry y="78" width="186" height="26" as="geometry" />
        </mxCell>
        <mxCell id="ExRfrAu5Tip5YaKPEqqu-9" value="Privilege" style="swimlane;fontStyle=0;childLayout=stackLayout;horizontal=1;startSize=26;fillColor=none;horizontalStack=0;resizeParent=1;resizeParentMax=0;resizeLast=0;collapsible=1;marginBottom=0;" vertex="1" parent="WIyWlLk6GJQsqaUBKTNV-1">
          <mxGeometry x="414" y="180" width="140" height="78" as="geometry" />
        </mxCell>
        <mxCell id="ExRfrAu5Tip5YaKPEqqu-10" value="+ PrivilegeId: Integer" style="text;strokeColor=none;fillColor=none;align=left;verticalAlign=top;spacingLeft=4;spacingRight=4;overflow=hidden;rotatable=0;points=[[0,0.5],[1,0.5]];portConstraint=eastwest;" vertex="1" parent="ExRfrAu5Tip5YaKPEqqu-9">
          <mxGeometry y="26" width="140" height="26" as="geometry" />
        </mxCell>
        <mxCell id="ExRfrAu5Tip5YaKPEqqu-11" value="+ PrivilegeName:String" style="text;strokeColor=none;fillColor=none;align=left;verticalAlign=top;spacingLeft=4;spacingRight=4;overflow=hidden;rotatable=0;points=[[0,0.5],[1,0.5]];portConstraint=eastwest;" vertex="1" parent="ExRfrAu5Tip5YaKPEqqu-9">
          <mxGeometry y="52" width="140" height="26" as="geometry" />
        </mxCell>
        <mxCell id="ExRfrAu5Tip5YaKPEqqu-15" value="1" style="endArrow=open;html=1;endSize=12;startArrow=diamondThin;startSize=14;startFill=1;edgeStyle=orthogonalEdgeStyle;align=left;verticalAlign=bottom;exitX=0;exitY=0.25;exitDx=0;exitDy=0;entryX=1;entryY=0.5;entryDx=0;entryDy=0;" edge="1" parent="WIyWlLk6GJQsqaUBKTNV-1" source="ExRfrAu5Tip5YaKPEqqu-5" target="ExRfrAu5Tip5YaKPEqqu-14">
          <mxGeometry x="-1" y="3" relative="1" as="geometry">
            <mxPoint x="400" y="310" as="sourcePoint" />
            <mxPoint x="560" y="310" as="targetPoint" />
          </mxGeometry>
        </mxCell>
        <mxCell id="ExRfrAu5Tip5YaKPEqqu-17" value="1" style="endArrow=open;html=1;endSize=12;startArrow=diamondThin;startSize=14;startFill=1;edgeStyle=orthogonalEdgeStyle;align=left;verticalAlign=bottom;exitX=1.021;exitY=0.077;exitDx=0;exitDy=0;exitPerimeter=0;entryX=1;entryY=0.5;entryDx=0;entryDy=0;" edge="1" parent="WIyWlLk6GJQsqaUBKTNV-1" source="ExRfrAu5Tip5YaKPEqqu-10" target="ExRfrAu5Tip5YaKPEqqu-16">
          <mxGeometry x="-1" y="3" relative="1" as="geometry">
            <mxPoint x="570" y="350" as="sourcePoint" />
            <mxPoint x="730" y="350" as="targetPoint" />
            <Array as="points">
              <mxPoint x="640" y="208" />
              <mxPoint x="640" y="108" />
            </Array>
          </mxGeometry>
        </mxCell>
        <mxCell id="ExRfrAu5Tip5YaKPEqqu-18" value="Bus" style="swimlane;fontStyle=0;childLayout=stackLayout;horizontal=1;startSize=26;fillColor=none;horizontalStack=0;resizeParent=1;resizeParentMax=0;resizeLast=0;collapsible=1;marginBottom=0;" vertex="1" parent="WIyWlLk6GJQsqaUBKTNV-1">
          <mxGeometry x="220" y="280" width="140" height="208" as="geometry" />
        </mxCell>
        <mxCell id="ExRfrAu5Tip5YaKPEqqu-19" value="+ BusId: Integer" style="text;strokeColor=none;fillColor=none;align=left;verticalAlign=top;spacingLeft=4;spacingRight=4;overflow=hidden;rotatable=0;points=[[0,0.5],[1,0.5]];portConstraint=eastwest;" vertex="1" parent="ExRfrAu5Tip5YaKPEqqu-18">
          <mxGeometry y="26" width="140" height="26" as="geometry" />
        </mxCell>
        <mxCell id="ExRfrAu5Tip5YaKPEqqu-20" value="+ BusNo.: String" style="text;strokeColor=none;fillColor=none;align=left;verticalAlign=top;spacingLeft=4;spacingRight=4;overflow=hidden;rotatable=0;points=[[0,0.5],[1,0.5]];portConstraint=eastwest;" vertex="1" parent="ExRfrAu5Tip5YaKPEqqu-18">
          <mxGeometry y="52" width="140" height="26" as="geometry" />
        </mxCell>
        <mxCell id="ExRfrAu5Tip5YaKPEqqu-23" value="+ BusModel: String" style="text;strokeColor=none;fillColor=none;align=left;verticalAlign=top;spacingLeft=4;spacingRight=4;overflow=hidden;rotatable=0;points=[[0,0.5],[1,0.5]];portConstraint=eastwest;" vertex="1" parent="ExRfrAu5Tip5YaKPEqqu-18">
          <mxGeometry y="78" width="140" height="26" as="geometry" />
        </mxCell>
        <mxCell id="ExRfrAu5Tip5YaKPEqqu-21" value="+ BusImagePath: String" style="text;strokeColor=none;fillColor=none;align=left;verticalAlign=top;spacingLeft=4;spacingRight=4;overflow=hidden;rotatable=0;points=[[0,0.5],[1,0.5]];portConstraint=eastwest;" vertex="1" parent="ExRfrAu5Tip5YaKPEqqu-18">
          <mxGeometry y="104" width="140" height="26" as="geometry" />
        </mxCell>
        <mxCell id="ExRfrAu5Tip5YaKPEqqu-29" value="+ BusO: BusOperator" style="text;strokeColor=none;fillColor=none;align=left;verticalAlign=top;spacingLeft=4;spacingRight=4;overflow=hidden;rotatable=0;points=[[0,0.5],[1,0.5]];portConstraint=eastwest;" vertex="1" parent="ExRfrAu5Tip5YaKPEqqu-18">
          <mxGeometry y="130" width="140" height="26" as="geometry" />
        </mxCell>
        <mxCell id="ExRfrAu5Tip5YaKPEqqu-33" value="+ Seats: List&lt;Seats&gt;" style="text;strokeColor=none;fillColor=none;align=left;verticalAlign=top;spacingLeft=4;spacingRight=4;overflow=hidden;rotatable=0;points=[[0,0.5],[1,0.5]];portConstraint=eastwest;" vertex="1" parent="ExRfrAu5Tip5YaKPEqqu-18">
          <mxGeometry y="156" width="140" height="26" as="geometry" />
        </mxCell>
        <mxCell id="ExRfrAu5Tip5YaKPEqqu-40" value="+ Priviledge:Privilege" style="text;strokeColor=none;fillColor=none;align=left;verticalAlign=top;spacingLeft=4;spacingRight=4;overflow=hidden;rotatable=0;points=[[0,0.5],[1,0.5]];portConstraint=eastwest;" vertex="1" parent="ExRfrAu5Tip5YaKPEqqu-18">
          <mxGeometry y="182" width="140" height="26" as="geometry" />
        </mxCell>
        <mxCell id="ExRfrAu5Tip5YaKPEqqu-24" value="BusOperator" style="swimlane;fontStyle=0;childLayout=stackLayout;horizontal=1;startSize=26;fillColor=none;horizontalStack=0;resizeParent=1;resizeParentMax=0;resizeLast=0;collapsible=1;marginBottom=0;" vertex="1" parent="WIyWlLk6GJQsqaUBKTNV-1">
          <mxGeometry x="490" y="280" width="186" height="182" as="geometry" />
        </mxCell>
        <mxCell id="ExRfrAu5Tip5YaKPEqqu-25" value="+ BusOperatorId: Integer" style="text;strokeColor=none;fillColor=none;align=left;verticalAlign=top;spacingLeft=4;spacingRight=4;overflow=hidden;rotatable=0;points=[[0,0.5],[1,0.5]];portConstraint=eastwest;" vertex="1" parent="ExRfrAu5Tip5YaKPEqqu-24">
          <mxGeometry y="26" width="186" height="26" as="geometry" />
        </mxCell>
        <mxCell id="ExRfrAu5Tip5YaKPEqqu-26" value="+ BOName: String" style="text;strokeColor=none;fillColor=none;align=left;verticalAlign=top;spacingLeft=4;spacingRight=4;overflow=hidden;rotatable=0;points=[[0,0.5],[1,0.5]];portConstraint=eastwest;" vertex="1" parent="ExRfrAu5Tip5YaKPEqqu-24">
          <mxGeometry y="52" width="186" height="26" as="geometry" />
        </mxCell>
        <mxCell id="ExRfrAu5Tip5YaKPEqqu-27" value="+ BOPhone: List&lt;Integer&gt;" style="text;strokeColor=none;fillColor=none;align=left;verticalAlign=top;spacingLeft=4;spacingRight=4;overflow=hidden;rotatable=0;points=[[0,0.5],[1,0.5]];portConstraint=eastwest;" vertex="1" parent="ExRfrAu5Tip5YaKPEqqu-24">
          <mxGeometry y="78" width="186" height="26" as="geometry" />
        </mxCell>
        <mxCell id="ExRfrAu5Tip5YaKPEqqu-28" value="+ BOAddress: String" style="text;strokeColor=none;fillColor=none;align=left;verticalAlign=top;spacingLeft=4;spacingRight=4;overflow=hidden;rotatable=0;points=[[0,0.5],[1,0.5]];portConstraint=eastwest;" vertex="1" parent="ExRfrAu5Tip5YaKPEqqu-24">
          <mxGeometry y="104" width="186" height="26" as="geometry" />
        </mxCell>
        <mxCell id="ExRfrAu5Tip5YaKPEqqu-31" value="+Buses: List&lt;Bus&gt;" style="text;strokeColor=none;fillColor=none;align=left;verticalAlign=top;spacingLeft=4;spacingRight=4;overflow=hidden;rotatable=0;points=[[0,0.5],[1,0.5]];portConstraint=eastwest;" vertex="1" parent="ExRfrAu5Tip5YaKPEqqu-24">
          <mxGeometry y="130" width="186" height="26" as="geometry" />
        </mxCell>
        <mxCell id="ExRfrAu5Tip5YaKPEqqu-41" value="+Privilege: Privilege" style="text;strokeColor=none;fillColor=none;align=left;verticalAlign=top;spacingLeft=4;spacingRight=4;overflow=hidden;rotatable=0;points=[[0,0.5],[1,0.5]];portConstraint=eastwest;" vertex="1" parent="ExRfrAu5Tip5YaKPEqqu-24">
          <mxGeometry y="156" width="186" height="26" as="geometry" />
        </mxCell>
        <mxCell id="ExRfrAu5Tip5YaKPEqqu-32" value="1" style="endArrow=open;html=1;endSize=12;startArrow=diamondThin;startSize=14;startFill=1;edgeStyle=orthogonalEdgeStyle;align=left;verticalAlign=bottom;exitX=1.036;exitY=0.103;exitDx=0;exitDy=0;exitPerimeter=0;entryX=0;entryY=0.5;entryDx=0;entryDy=0;" edge="1" parent="WIyWlLk6GJQsqaUBKTNV-1" source="ExRfrAu5Tip5YaKPEqqu-18" target="ExRfrAu5Tip5YaKPEqqu-31">
          <mxGeometry x="-1" y="3" relative="1" as="geometry">
            <mxPoint x="470" y="210" as="sourcePoint" />
            <mxPoint x="630" y="210" as="targetPoint" />
          </mxGeometry>
        </mxCell>
        <mxCell id="ExRfrAu5Tip5YaKPEqqu-34" value="Seat" style="swimlane;fontStyle=0;childLayout=stackLayout;horizontal=1;startSize=26;fillColor=none;horizontalStack=0;resizeParent=1;resizeParentMax=0;resizeLast=0;collapsible=1;marginBottom=0;" vertex="1" parent="WIyWlLk6GJQsqaUBKTNV-1">
          <mxGeometry x="490" y="490" width="170" height="130" as="geometry" />
        </mxCell>
        <mxCell id="ExRfrAu5Tip5YaKPEqqu-35" value="+ SeatId: Integer" style="text;strokeColor=none;fillColor=none;align=left;verticalAlign=top;spacingLeft=4;spacingRight=4;overflow=hidden;rotatable=0;points=[[0,0.5],[1,0.5]];portConstraint=eastwest;" vertex="1" parent="ExRfrAu5Tip5YaKPEqqu-34">
          <mxGeometry y="26" width="170" height="26" as="geometry" />
        </mxCell>
        <mxCell id="ExRfrAu5Tip5YaKPEqqu-36" value="+ SeatName: String" style="text;strokeColor=none;fillColor=none;align=left;verticalAlign=top;spacingLeft=4;spacingRight=4;overflow=hidden;rotatable=0;points=[[0,0.5],[1,0.5]];portConstraint=eastwest;" vertex="1" parent="ExRfrAu5Tip5YaKPEqqu-34">
          <mxGeometry y="52" width="170" height="26" as="geometry" />
        </mxCell>
        <mxCell id="ExRfrAu5Tip5YaKPEqqu-37" value="+ SeatCoordinate: Integer" style="text;strokeColor=none;fillColor=none;align=left;verticalAlign=top;spacingLeft=4;spacingRight=4;overflow=hidden;rotatable=0;points=[[0,0.5],[1,0.5]];portConstraint=eastwest;" vertex="1" parent="ExRfrAu5Tip5YaKPEqqu-34">
          <mxGeometry y="78" width="170" height="26" as="geometry" />
        </mxCell>
        <mxCell id="ExRfrAu5Tip5YaKPEqqu-38" value="+Bus: Bus" style="text;strokeColor=none;fillColor=none;align=left;verticalAlign=top;spacingLeft=4;spacingRight=4;overflow=hidden;rotatable=0;points=[[0,0.5],[1,0.5]];portConstraint=eastwest;" vertex="1" parent="ExRfrAu5Tip5YaKPEqqu-34">
          <mxGeometry y="104" width="170" height="26" as="geometry" />
        </mxCell>
        <mxCell id="ExRfrAu5Tip5YaKPEqqu-39" value="1" style="endArrow=open;html=1;endSize=12;startArrow=diamondThin;startSize=14;startFill=1;edgeStyle=orthogonalEdgeStyle;align=left;verticalAlign=bottom;exitX=-0.006;exitY=0.154;exitDx=0;exitDy=0;exitPerimeter=0;entryX=1;entryY=0.5;entryDx=0;entryDy=0;" edge="1" parent="WIyWlLk6GJQsqaUBKTNV-1" source="ExRfrAu5Tip5YaKPEqqu-34" target="ExRfrAu5Tip5YaKPEqqu-33">
          <mxGeometry x="-1" y="3" relative="1" as="geometry">
            <mxPoint x="470" y="370" as="sourcePoint" />
            <mxPoint x="630" y="370" as="targetPoint" />
          </mxGeometry>
        </mxCell>
        <mxCell id="ExRfrAu5Tip5YaKPEqqu-42" value="Trip" style="swimlane;fontStyle=0;childLayout=stackLayout;horizontal=1;startSize=26;fillColor=none;horizontalStack=0;resizeParent=1;resizeParentMax=0;resizeLast=0;collapsible=1;marginBottom=0;" vertex="1" parent="WIyWlLk6GJQsqaUBKTNV-1">
          <mxGeometry x="220" y="580" width="160" height="156" as="geometry" />
        </mxCell>
        <mxCell id="ExRfrAu5Tip5YaKPEqqu-43" value="+Source: Destination" style="text;strokeColor=none;fillColor=none;align=left;verticalAlign=top;spacingLeft=4;spacingRight=4;overflow=hidden;rotatable=0;points=[[0,0.5],[1,0.5]];portConstraint=eastwest;" vertex="1" parent="ExRfrAu5Tip5YaKPEqqu-42">
          <mxGeometry y="26" width="160" height="26" as="geometry" />
        </mxCell>
        <mxCell id="ExRfrAu5Tip5YaKPEqqu-44" value="+ Dest: Destination" style="text;strokeColor=none;fillColor=none;align=left;verticalAlign=top;spacingLeft=4;spacingRight=4;overflow=hidden;rotatable=0;points=[[0,0.5],[1,0.5]];portConstraint=eastwest;" vertex="1" parent="ExRfrAu5Tip5YaKPEqqu-42">
          <mxGeometry y="52" width="160" height="26" as="geometry" />
        </mxCell>
        <mxCell id="ExRfrAu5Tip5YaKPEqqu-45" value="+TripId: Integer" style="text;strokeColor=none;fillColor=none;align=left;verticalAlign=top;spacingLeft=4;spacingRight=4;overflow=hidden;rotatable=0;points=[[0,0.5],[1,0.5]];portConstraint=eastwest;" vertex="1" parent="ExRfrAu5Tip5YaKPEqqu-42">
          <mxGeometry y="78" width="160" height="26" as="geometry" />
        </mxCell>
        <mxCell id="ExRfrAu5Tip5YaKPEqqu-46" value="+Bus: Bus" style="text;strokeColor=none;fillColor=none;align=left;verticalAlign=top;spacingLeft=4;spacingRight=4;overflow=hidden;rotatable=0;points=[[0,0.5],[1,0.5]];portConstraint=eastwest;" vertex="1" parent="ExRfrAu5Tip5YaKPEqqu-42">
          <mxGeometry y="104" width="160" height="26" as="geometry" />
        </mxCell>
        <mxCell id="ExRfrAu5Tip5YaKPEqqu-47" value="+Bookings: List&lt;Booking&gt;" style="text;strokeColor=none;fillColor=none;align=left;verticalAlign=top;spacingLeft=4;spacingRight=4;overflow=hidden;rotatable=0;points=[[0,0.5],[1,0.5]];portConstraint=eastwest;" vertex="1" parent="ExRfrAu5Tip5YaKPEqqu-42">
          <mxGeometry y="130" width="160" height="26" as="geometry" />
        </mxCell>
        <mxCell id="ExRfrAu5Tip5YaKPEqqu-48" value="Booking" style="swimlane;fontStyle=0;childLayout=stackLayout;horizontal=1;startSize=26;fillColor=none;horizontalStack=0;resizeParent=1;resizeParentMax=0;resizeLast=0;collapsible=1;marginBottom=0;" vertex="1" parent="WIyWlLk6GJQsqaUBKTNV-1">
          <mxGeometry x="490" y="680" width="140" height="130" as="geometry" />
        </mxCell>
        <mxCell id="ExRfrAu5Tip5YaKPEqqu-49" value="+BookingId: Integer" style="text;strokeColor=none;fillColor=none;align=left;verticalAlign=top;spacingLeft=4;spacingRight=4;overflow=hidden;rotatable=0;points=[[0,0.5],[1,0.5]];portConstraint=eastwest;" vertex="1" parent="ExRfrAu5Tip5YaKPEqqu-48">
          <mxGeometry y="26" width="140" height="26" as="geometry" />
        </mxCell>
        <mxCell id="ExRfrAu5Tip5YaKPEqqu-50" value="+Trip: Trip" style="text;strokeColor=none;fillColor=none;align=left;verticalAlign=top;spacingLeft=4;spacingRight=4;overflow=hidden;rotatable=0;points=[[0,0.5],[1,0.5]];portConstraint=eastwest;" vertex="1" parent="ExRfrAu5Tip5YaKPEqqu-48">
          <mxGeometry y="52" width="140" height="26" as="geometry" />
        </mxCell>
        <mxCell id="ExRfrAu5Tip5YaKPEqqu-51" value="+ Seats: List&lt;Seat&gt;" style="text;strokeColor=none;fillColor=none;align=left;verticalAlign=top;spacingLeft=4;spacingRight=4;overflow=hidden;rotatable=0;points=[[0,0.5],[1,0.5]];portConstraint=eastwest;" vertex="1" parent="ExRfrAu5Tip5YaKPEqqu-48">
          <mxGeometry y="78" width="140" height="26" as="geometry" />
        </mxCell>
        <mxCell id="ExRfrAu5Tip5YaKPEqqu-52" value="+Status: BookingStatus" style="text;strokeColor=none;fillColor=none;align=left;verticalAlign=top;spacingLeft=4;spacingRight=4;overflow=hidden;rotatable=0;points=[[0,0.5],[1,0.5]];portConstraint=eastwest;" vertex="1" parent="ExRfrAu5Tip5YaKPEqqu-48">
          <mxGeometry y="104" width="140" height="26" as="geometry" />
        </mxCell>
        <mxCell id="ExRfrAu5Tip5YaKPEqqu-64" value="1" style="endArrow=open;html=1;endSize=12;startArrow=diamondThin;startSize=14;startFill=1;edgeStyle=orthogonalEdgeStyle;align=left;verticalAlign=bottom;exitX=0.007;exitY=0.1;exitDx=0;exitDy=0;exitPerimeter=0;entryX=1;entryY=0.5;entryDx=0;entryDy=0;" edge="1" parent="WIyWlLk6GJQsqaUBKTNV-1" source="ExRfrAu5Tip5YaKPEqqu-48" target="ExRfrAu5Tip5YaKPEqqu-47">
          <mxGeometry x="-1" y="3" relative="1" as="geometry">
            <mxPoint x="170" y="790" as="sourcePoint" />
            <mxPoint x="330" y="790" as="targetPoint" />
          </mxGeometry>
        </mxCell>
        <mxCell id="ExRfrAu5Tip5YaKPEqqu-65" value="1" style="endArrow=open;html=1;endSize=12;startArrow=diamondThin;startSize=14;startFill=1;edgeStyle=orthogonalEdgeStyle;align=left;verticalAlign=bottom;exitX=1.006;exitY=-0.038;exitDx=0;exitDy=0;exitPerimeter=0;entryX=1;entryY=0.5;entryDx=0;entryDy=0;" edge="1" parent="WIyWlLk6GJQsqaUBKTNV-1" source="ExRfrAu5Tip5YaKPEqqu-35" target="ExRfrAu5Tip5YaKPEqqu-51">
          <mxGeometry x="-1" y="3" relative="1" as="geometry">
            <mxPoint x="250" y="750" as="sourcePoint" />
            <mxPoint x="650" y="770" as="targetPoint" />
            <Array as="points">
              <mxPoint x="680" y="515" />
              <mxPoint x="680" y="506" />
              <mxPoint x="730" y="506" />
              <mxPoint x="730" y="663" />
              <mxPoint x="680" y="663" />
              <mxPoint x="680" y="770" />
            </Array>
          </mxGeometry>
        </mxCell>
        <mxCell id="ExRfrAu5Tip5YaKPEqqu-66" value="BookingStatus&#xa;&lt;&lt;ENUM&gt;&gt;" style="swimlane;fontStyle=0;childLayout=stackLayout;horizontal=1;startSize=26;fillColor=none;horizontalStack=0;resizeParent=1;resizeParentMax=0;resizeLast=0;collapsible=1;marginBottom=0;" vertex="1" parent="WIyWlLk6GJQsqaUBKTNV-1">
          <mxGeometry x="230" y="790" width="140" height="104" as="geometry" />
        </mxCell>
        <mxCell id="ExRfrAu5Tip5YaKPEqqu-67" value="REQUESTED" style="text;strokeColor=none;fillColor=none;align=left;verticalAlign=top;spacingLeft=4;spacingRight=4;overflow=hidden;rotatable=0;points=[[0,0.5],[1,0.5]];portConstraint=eastwest;" vertex="1" parent="ExRfrAu5Tip5YaKPEqqu-66">
          <mxGeometry y="26" width="140" height="26" as="geometry" />
        </mxCell>
        <mxCell id="ExRfrAu5Tip5YaKPEqqu-68" value="COFIRMED" style="text;strokeColor=none;fillColor=none;align=left;verticalAlign=top;spacingLeft=4;spacingRight=4;overflow=hidden;rotatable=0;points=[[0,0.5],[1,0.5]];portConstraint=eastwest;" vertex="1" parent="ExRfrAu5Tip5YaKPEqqu-66">
          <mxGeometry y="52" width="140" height="26" as="geometry" />
        </mxCell>
        <mxCell id="ExRfrAu5Tip5YaKPEqqu-69" value="CANCELLED" style="text;strokeColor=none;fillColor=none;align=left;verticalAlign=top;spacingLeft=4;spacingRight=4;overflow=hidden;rotatable=0;points=[[0,0.5],[1,0.5]];portConstraint=eastwest;" vertex="1" parent="ExRfrAu5Tip5YaKPEqqu-66">
          <mxGeometry y="78" width="140" height="26" as="geometry" />
        </mxCell>
        <mxCell id="ExRfrAu5Tip5YaKPEqqu-72" value="1" style="endArrow=open;html=1;endSize=12;startArrow=diamondThin;startSize=14;startFill=1;edgeStyle=orthogonalEdgeStyle;align=left;verticalAlign=bottom;exitX=1;exitY=0.25;exitDx=0;exitDy=0;entryX=0;entryY=0.5;entryDx=0;entryDy=0;" edge="1" parent="WIyWlLk6GJQsqaUBKTNV-1" source="ExRfrAu5Tip5YaKPEqqu-66" target="ExRfrAu5Tip5YaKPEqqu-52">
          <mxGeometry x="-1" y="3" relative="1" as="geometry">
            <mxPoint x="60" y="810" as="sourcePoint" />
            <mxPoint x="220" y="810" as="targetPoint" />
          </mxGeometry>
        </mxCell>
        <mxCell id="ExRfrAu5Tip5YaKPEqqu-73" value="TripSeat (denorm class)" style="swimlane;fontStyle=0;childLayout=stackLayout;horizontal=1;startSize=26;fillColor=none;horizontalStack=0;resizeParent=1;resizeParentMax=0;resizeLast=0;collapsible=1;marginBottom=0;" vertex="1" parent="WIyWlLk6GJQsqaUBKTNV-1">
          <mxGeometry x="20" y="490" width="140" height="78" as="geometry" />
        </mxCell>
        <mxCell id="ExRfrAu5Tip5YaKPEqqu-74" value="+ Trip: Trip" style="text;strokeColor=none;fillColor=none;align=left;verticalAlign=top;spacingLeft=4;spacingRight=4;overflow=hidden;rotatable=0;points=[[0,0.5],[1,0.5]];portConstraint=eastwest;" vertex="1" parent="ExRfrAu5Tip5YaKPEqqu-73">
          <mxGeometry y="26" width="140" height="26" as="geometry" />
        </mxCell>
        <mxCell id="ExRfrAu5Tip5YaKPEqqu-75" value="+ Seat: Seat" style="text;strokeColor=none;fillColor=none;align=left;verticalAlign=top;spacingLeft=4;spacingRight=4;overflow=hidden;rotatable=0;points=[[0,0.5],[1,0.5]];portConstraint=eastwest;" vertex="1" parent="ExRfrAu5Tip5YaKPEqqu-73">
          <mxGeometry y="52" width="140" height="26" as="geometry" />
        </mxCell>
      </root>
    </mxGraphModel>
  </diagram>
</mxfile>
